<svg xmlns="http://www.w3.org/2000/svg" viewBox="150 414.35 700 171.3"><defs/><path fill="#06aee8" transform="matrix(0.3735249096435436 0 0 0.3735249096435436 6.327398412600209 26.770659751312696)" d="M 798.73994737194 1037.62846455754 L 819.83994737194 1074.22846455754 L 789.33994737194 1127.12846455754 L 864.43994737194 1257.12846455754 L 768.23994737194 1423.82846455754 L 671.93994737194 1257.12846455754 Z"/><path fill="#000066" transform="matrix(0.3735249096435436 0 0 0.3735249096435436 6.327398412600209 26.770659751312696)" d="M 764.83994737194 1496.22846455754 L 722.63994737194 1496.22846455754 L 692.03994737194 1443.32846455754 L 541.93994737194 1443.32846455754 L 445.73994737194 1276.72846455754 L 638.13994737194 1276.72846455754 Z"/><path fill="#06aee8" transform="matrix(0.3735249096435436 0 0 0.3735249096435436 6.327398412600209 26.770659751312696)" d="M 384.63994737194 1237.62846455754 L 405.83994737194 1201.02846455754 L 466.83994737194 1201.02846455754 L 541.93994737194 1071.02846455754 L 734.33994737194 1071.02846455754 L 638.13994737194 1237.62846455754 Z"/><path id="text" fill="#000066" transform="matrix(1.2513040816570906 0 0 1.2513040816570906 222.99234709252784 92.68826517798877)" d="M 122.45935943181 353.10979477555 C 118.74735943181 349.52579477555 116.89135943181 344.34179477555 116.89135943181 337.55779477555 L 116.89135943181 312.21379477555 C 116.89135943181 305.42979477555 118.74735943181 300.24579477555 122.45935943181 296.66179477555 C 126.17135943181 293.07779477555 132.28335943181 291.28579477555 140.79535943181 291.28579477555 L 163.25935943181 291.28579477555 L 163.25935943181 301.84579477555 L 140.79535943181 301.84579477555 C 137.27535943181 301.84579477555 134.66735943181 302.67779477555 132.97135943181 304.34179477555 C 131.27535943181 306.00579477555 130.42735943181 308.62979477555 130.42735943181 312.21379477555 L 130.42735943181 319.60579477555 L 159.03535943181 319.60579477555 L 159.03535943181 330.16579477555 L 130.42735943181 330.16579477555 L 130.42735943181 337.55779477555 C 130.42735943181 341.07779477555 131.27535943181 343.68579477555 132.97135943181 345.38179477555 C 134.66735943181 347.07779477555 137.27535943181 347.92579477555 140.79535943181 347.92579477555 L 163.45135943181 347.92579477555 L 163.45135943181 358.48579477555 L 140.79535943181 358.48579477555 C 132.28335943181 358.48579477555 126.17135943181 356.69379477555 122.45935943181 353.10979477555 Z M 188.98735943181 301.84579477555 L 168.73135943181 301.84579477555 L 168.73135943181 291.28579477555 L 222.77935943181 291.28579477555 L 222.77935943181 301.84579477555 L 202.52335943181 301.84579477555 L 202.52335943181 358.48579477555 L 188.98735943181 358.48579477555 L 188.98735943181 301.84579477555 Z M 232.85935943181 291.28579477555 L 246.39535943181 291.28579477555 L 246.39535943181 319.50979477555 L 272.50735943181 319.50979477555 L 272.50735943181 291.28579477555 L 286.04335943181 291.28579477555 L 286.04335943181 358.48579477555 L 272.50735943181 358.48579477555 L 272.50735943181 330.06979477555 L 246.39535943181 330.06979477555 L 246.39535943181 358.48579477555 L 232.85935943181 358.48579477555 L 232.85935943181 291.28579477555 Z M 304.85935943181 353.10979477555 C 301.14735943181 349.52579477555 299.29135943181 344.34179477555 299.29135943181 337.55779477555 L 299.29135943181 312.21379477555 C 299.29135943181 305.42979477555 301.14735943181 300.24579477555 304.85935943181 296.66179477555 C 308.57135943181 293.07779477555 314.68335943181 291.28579477555 323.19535943181 291.28579477555 L 345.65935943181 291.28579477555 L 345.65935943181 301.84579477555 L 323.19535943181 301.84579477555 C 319.67535943181 301.84579477555 317.06735943181 302.67779477555 315.37135943181 304.34179477555 C 313.67535943181 306.00579477555 312.82735943181 308.62979477555 312.82735943181 312.21379477555 L 312.82735943181 319.60579477555 L 341.43535943181 319.60579477555 L 341.43535943181 330.16579477555 L 312.82735943181 330.16579477555 L 312.82735943181 337.55779477555 C 312.82735943181 341.07779477555 313.67535943181 343.68579477555 315.37135943181 345.38179477555 C 317.06735943181 347.07779477555 319.67535943181 347.92579477555 323.19535943181 347.92579477555 L 345.85135943181 347.92579477555 L 345.85135943181 358.48579477555 L 323.19535943181 358.48579477555 C 314.68335943181 358.48579477555 308.57135943181 356.69379477555 304.85935943181 353.10979477555 Z M 411.80335943181 358.48579477555 L 397.49935943181 358.48579477555 L 393.08335943181 343.60579477555 C 392.18735943181 340.53379477555 391.29135943181 338.14979477555 390.39535943181 336.45379477555 C 389.49935943181 334.75779477555 388.28335943181 333.46179477555 386.74735943181 332.56579477555 C 385.21135943181 331.66979477555 383.16335943181 331.22179477555 380.60335943181 331.22179477555 L 370.90735943181 331.22179477555 L 370.90735943181 358.48579477555 L 357.37135943181 358.48579477555 L 357.37135943181 291.28579477555 L 384.53935943181 291.28579477555 C 392.73135943181 291.28579477555 398.77935943181 292.90179477555 402.68335943181 296.13379477555 C 406.58735943181 299.36579477555 408.53935943181 304.40579477555 408.53935943181 311.25379477555 C 408.53935943181 315.66979477555 407.37135943181 319.22179477555 405.03535943181 321.90979477555 C 402.69935943181 324.59779477555 399.48335943181 326.32579477555 395.38735943181 327.09379477555 C 398.65135943181 328.18179477555 401.11535943181 330.06979477555 402.77935943181 332.75779477555 C 404.44335943181 335.44579477555 405.97935943181 339.09379477555 407.38735943181 343.70179477555 L 411.80335943181 358.48579477555 Z M 392.17135943181 318.30979477555 C 394.05935943181 316.74179477555 395.00335943181 314.38979477555 395.00335943181 311.25379477555 C 395.00335943181 308.11779477555 394.05935943181 305.76579477555 392.17135943181 304.19779477555 C 390.28335943181 302.62979477555 387.86735943181 301.84579477555 384.92335943181 301.84579477555 L 370.90735943181 301.84579477555 L 370.90735943181 320.66179477555 L 384.92335943181 320.66179477555 C 387.86735943181 320.66179477555 390.28335943181 319.87779477555 392.17135943181 318.30979477555 Z M 427.16335943181 354.11779477555 C 422.68335943181 350.37379477555 420.44335943181 345.17379477555 420.44335943181 338.51779477555 L 420.44335943181 291.28579477555 L 433.97935943181 291.28579477555 L 433.97935943181 338.51779477555 C 433.97935943181 345.62179477555 438.33135943181 349.17379477555 447.03535943181 349.17379477555 C 455.73935943181 349.17379477555 460.09135943181 345.62179477555 460.09135943181 338.51779477555 L 460.09135943181 291.28579477555 L 473.62735943181 291.28579477555 L 473.62735943181 338.51779477555 C 473.62735943181 345.17379477555 471.38735943181 350.37379477555 466.90735943181 354.11779477555 C 462.42735943181 357.86179477555 455.80335943181 359.73379477555 447.03535943181 359.73379477555 C 438.26735943181 359.73379477555 431.64335943181 357.86179477555 427.16335943181 354.11779477555 Z M 487.54735943181 291.28579477555 L 501.08335943181 291.28579477555 L 501.08335943181 358.48579477555 L 487.54735943181 358.48579477555 L 487.54735943181 291.28579477555 Z"/></svg>